<?xml version="1.0" encoding="utf-8"?>
<svg version="1.1" id="Layer_1" xmlns="http://www.w3.org/2000/svg" x="0px" y="0px" viewBox="0 0 512 512" style="enable-background:new 0 0 512 512;">
  <g>
    <path d="M384,179.2l-9,0.4c-21.1-60.8-78.4-102.8-144.6-102.8c-84.7,0-153.6,68.9-153.6,153.6l0,3.2C32.7,245,0,285.2,0,332.8 c0,56.5,45.9,102.4,102.4,102.4h128V317.8l-33.1,33.1c-5,5-11.6,7.5-18.1,7.5s-13.1-2.5-18.1-7.5c-10-10-10-26.2,0-36.2l76.8-76.8 c2.4-2.4,5.2-4.3,8.4-5.6c6.2-2.6,13.3-2.6,19.5,0c3.1,1.3,6,3.2,8.4,5.6l76.8,76.8c10,10,10,26.2,0,36.2c-5,5-11.5,7.5-18.1,7.5 c-6.5,0-13.1-2.5-18.1-7.5l-33.1-33.1v117.4H384c70.6,0,128-57.4,128-128S454.6,179.2,384,179.2z" style="fill: rgb(77, 203, 98);"/>
  </g>
</svg>