<?xml version="1.0" encoding="UTF-8"?>
<svg version="1.1" xmlns="http://www.w3.org/2000/svg" width="1300" height="1300">
<path d="M0 0 C1.10875488 -0.00095673 2.21750977 -0.00191345 3.35986328 -0.00289917 C5.68587298 -0.00357457 8.01188463 -0.00176534 10.33789062 0.00244141 C13.86592914 0.00779873 17.39384037 0.00247445 20.921875 -0.00390625 C23.19791694 -0.00324536 25.47395881 -0.00196396 27.75 0 C29.30678467 -0.00303635 29.30678467 -0.00303635 30.89501953 -0.00613403 C37.93169889 0.01601481 44.87204219 0.45096499 51.875 1.1328125 C51.875 1.7928125 51.875 2.4528125 51.875 3.1328125 C57.155 3.4628125 62.435 3.7928125 67.875 4.1328125 C67.875 4.7928125 67.875 5.4528125 67.875 6.1328125 C71.835 6.4628125 75.795 6.7928125 79.875 7.1328125 C79.875 7.7928125 79.875 8.4528125 79.875 9.1328125 C81.525 9.1328125 83.175 9.1328125 84.875 9.1328125 C84.875 9.7928125 84.875 10.4528125 84.875 11.1328125 C87.845 11.4628125 90.815 11.7928125 93.875 12.1328125 C93.875 12.7928125 93.875 13.4528125 93.875 14.1328125 C97.835 14.6278125 97.835 14.6278125 101.875 15.1328125 C101.875 15.7928125 101.875 16.4528125 101.875 17.1328125 C103.855 17.4628125 105.835 17.7928125 107.875 18.1328125 C107.875 18.7928125 107.875 19.4528125 107.875 20.1328125 C111.835 20.6278125 111.835 20.6278125 115.875 21.1328125 C115.875 21.7928125 115.875 22.4528125 115.875 23.1328125 C116.865 23.1328125 117.855 23.1328125 118.875 23.1328125 C118.875 23.7928125 118.875 24.4528125 118.875 25.1328125 C120.855 25.4628125 122.835 25.7928125 124.875 26.1328125 C124.875 26.7928125 124.875 27.4528125 124.875 28.1328125 C127.35 28.6278125 127.35 28.6278125 129.875 29.1328125 C129.875 29.7928125 129.875 30.4528125 129.875 31.1328125 C131.855 31.4628125 133.835 31.7928125 135.875 32.1328125 C135.875 32.7928125 135.875 33.4528125 135.875 34.1328125 C138.35 34.6278125 138.35 34.6278125 140.875 35.1328125 C141.205 36.4528125 141.535 37.7728125 141.875 39.1328125 C144.35 39.6278125 144.35 39.6278125 146.875 40.1328125 C146.875 40.7928125 146.875 41.4528125 146.875 42.1328125 C147.431875 42.2359375 147.98875 42.3390625 148.5625 42.4453125 C151.3519101 43.27459658 153.4889064 44.47580306 155.875 46.1328125 C155.875 46.7928125 155.875 47.4528125 155.875 48.1328125 C156.865 48.4628125 157.855 48.7928125 158.875 49.1328125 C158.875 49.7928125 158.875 50.4528125 158.875 51.1328125 C159.49375 51.2153125 160.1125 51.2978125 160.75 51.3828125 C163.54438743 52.36906689 163.591952 53.56671649 164.875 56.1328125 C166.92500871 56.93810139 166.92500871 56.93810139 168.875 57.1328125 C168.875 57.7928125 168.875 58.4528125 168.875 59.1328125 C170.195 59.4628125 171.515 59.7928125 172.875 60.1328125 C172.875 61.1228125 172.875 62.1128125 172.875 63.1328125 C173.865 63.1328125 174.855 63.1328125 175.875 63.1328125 C175.875 63.7928125 175.875 64.4528125 175.875 65.1328125 C176.865 65.4628125 177.855 65.7928125 178.875 66.1328125 C178.875 66.7928125 178.875 67.4528125 178.875 68.1328125 C179.535 68.1328125 180.195 68.1328125 180.875 68.1328125 C180.875 69.1228125 180.875 70.1128125 180.875 71.1328125 C181.865 71.1328125 182.855 71.1328125 183.875 71.1328125 C183.875 71.7928125 183.875 72.4528125 183.875 73.1328125 C184.865 73.4628125 185.855 73.7928125 186.875 74.1328125 C186.875 75.1228125 186.875 76.1128125 186.875 77.1328125 C187.535 77.1328125 188.195 77.1328125 188.875 77.1328125 C192.875 81.60340074 192.875 81.60340074 192.875 84.1328125 C194.195 84.4628125 195.515 84.7928125 196.875 85.1328125 C197.205 86.7828125 197.535 88.4328125 197.875 90.1328125 C198.865 90.4628125 199.855 90.7928125 200.875 91.1328125 C200.875 92.1228125 200.875 93.1128125 200.875 94.1328125 C201.535 94.1328125 202.195 94.1328125 202.875 94.1328125 C203.205 95.4528125 203.535 96.7728125 203.875 98.1328125 C204.535 98.1328125 205.195 98.1328125 205.875 98.1328125 C206.205 99.1228125 206.535 100.1128125 206.875 101.1328125 C207.535 101.7515625 208.195 102.3703125 208.875 103.0078125 C211.14560644 105.42033185 211.51508575 106.89358425 211.875 110.1328125 C212.535 110.1328125 213.195 110.1328125 213.875 110.1328125 C214.205 111.7828125 214.535 113.4328125 214.875 115.1328125 C215.535 115.1328125 216.195 115.1328125 216.875 115.1328125 C217.205 117.1128125 217.535 119.0928125 217.875 121.1328125 C218.865 121.4628125 219.855 121.7928125 220.875 122.1328125 C220.875 123.7828125 220.875 125.4328125 220.875 127.1328125 C221.535 127.1328125 222.195 127.1328125 222.875 127.1328125 C222.875 127.7928125 222.875 128.4528125 222.875 129.1328125 C224.525 129.1328125 226.175 129.1328125 227.875 129.1328125 C228.205 128.1428125 228.535 127.1528125 228.875 126.1328125 C229.535 126.1328125 230.195 126.1328125 230.875 126.1328125 C231.205 124.8128125 231.535 123.4928125 231.875 122.1328125 C233.525 121.8028125 235.175 121.4728125 236.875 121.1328125 C236.875 120.4728125 236.875 119.8128125 236.875 119.1328125 C238.51104196 117.76207464 240.18178061 116.43225994 241.875 115.1328125 C242.41125 114.5553125 242.9475 113.9778125 243.5 113.3828125 C244.875 112.1328125 244.875 112.1328125 247.875 112.1328125 C248.205 110.8128125 248.535 109.4928125 248.875 108.1328125 C250.525 107.8028125 252.175 107.4728125 253.875 107.1328125 C253.875 106.4728125 253.875 105.8128125 253.875 105.1328125 C255.525 104.8028125 257.175 104.4728125 258.875 104.1328125 C259.205 103.1428125 259.535 102.1528125 259.875 101.1328125 C260.865 101.1328125 261.855 101.1328125 262.875 101.1328125 C262.875 100.4728125 262.875 99.8128125 262.875 99.1328125 C264.525 98.8028125 266.175 98.4728125 267.875 98.1328125 C267.875 97.4728125 267.875 96.8128125 267.875 96.1328125 C268.865 96.1328125 269.855 96.1328125 270.875 96.1328125 C270.875 95.4728125 270.875 94.8128125 270.875 94.1328125 C273.845 93.6378125 273.845 93.6378125 276.875 93.1328125 C276.875 92.4728125 276.875 91.8128125 276.875 91.1328125 C278.525 90.8028125 280.175 90.4728125 281.875 90.1328125 C281.875 89.4728125 281.875 88.8128125 281.875 88.1328125 C284.515 87.8028125 287.155 87.4728125 289.875 87.1328125 C289.875 86.4728125 289.875 85.8128125 289.875 85.1328125 C292.515 84.8028125 295.155 84.4728125 297.875 84.1328125 C297.875 83.4728125 297.875 82.8128125 297.875 82.1328125 C299.195 82.1328125 300.515 82.1328125 301.875 82.1328125 C301.875 81.4728125 301.875 80.8128125 301.875 80.1328125 C305.175 79.8028125 308.475 79.4728125 311.875 79.1328125 C311.875 78.4728125 311.875 77.8128125 311.875 77.1328125 C315.175 76.8028125 318.475 76.4728125 321.875 76.1328125 C321.875 75.4728125 321.875 74.8128125 321.875 74.1328125 C329.795 73.6378125 329.795 73.6378125 337.875 73.1328125 C337.875 72.4728125 337.875 71.8128125 337.875 71.1328125 C347.71056051 69.85535361 357.57481927 69.98064477 367.47216797 70.00244141 C370.36821732 70.00779995 373.26411162 70.00247162 376.16015625 69.99609375 C394.07855088 69.99031511 394.07855088 69.99031511 402.875 71.1328125 C402.875 71.7928125 402.875 72.4528125 402.875 73.1328125 C404.07125 73.1121875 405.2675 73.0915625 406.5 73.0703125 C410.05504869 73.06398679 413.38055624 73.43392375 416.875 74.1328125 C416.875 74.7928125 416.875 75.4528125 416.875 76.1328125 C418.7003125 76.101875 418.7003125 76.101875 420.5625 76.0703125 C423.79477322 76.06457134 426.72434741 76.34514935 429.875 77.1328125 C429.875 77.7928125 429.875 78.4528125 429.875 79.1328125 C432.845 79.4628125 435.815 79.7928125 438.875 80.1328125 C438.875 80.7928125 438.875 81.4528125 438.875 82.1328125 C440.525 82.1328125 442.175 82.1328125 443.875 82.1328125 C443.875 82.7928125 443.875 83.4528125 443.875 84.1328125 C445.855 84.4628125 447.835 84.7928125 449.875 85.1328125 C449.875 85.7928125 449.875 86.4528125 449.875 87.1328125 C453.835 87.6278125 453.835 87.6278125 457.875 88.1328125 C457.875 88.7928125 457.875 89.4528125 457.875 90.1328125 C459.855 90.4628125 461.835 90.7928125 463.875 91.1328125 C463.875 91.7928125 463.875 92.4528125 463.875 93.1328125 C465.855 93.4628125 467.835 93.7928125 469.875 94.1328125 C469.875 94.7928125 469.875 95.4528125 469.875 96.1328125 C470.535 96.1328125 471.195 96.1328125 471.875 96.1328125 C471.875 96.7928125 471.875 97.4528125 471.875 98.1328125 C473.195 98.4628125 474.515 98.7928125 475.875 99.1328125 C475.875 99.7928125 475.875 100.4528125 475.875 101.1328125 C477.855 101.4628125 479.835 101.7928125 481.875 102.1328125 C481.875 102.7928125 481.875 103.4528125 481.875 104.1328125 C484.28416432 105.43005483 486.40189187 106.27744949 489.0625 107.0078125 C489.990625 107.3790625 490.91875 107.7503125 491.875 108.1328125 C492.5625 110.1953125 492.5625 110.1953125 492.875 112.1328125 C493.865 112.4628125 494.855 112.7928125 495.875 113.1328125 C495.875 113.7928125 495.875 114.4528125 495.875 115.1328125 C498.35 115.6278125 498.35 115.6278125 500.875 116.1328125 C500.875 116.7928125 500.875 117.4528125 500.875 118.1328125 C501.865 118.4628125 502.855 118.7928125 503.875 119.1328125 C503.875 119.7928125 503.875 120.4528125 503.875 121.1328125 C504.865 121.4628125 505.855 121.7928125 506.875 122.1328125 C506.875 122.7928125 506.875 123.4528125 506.875 124.1328125 C507.535 124.1328125 508.195 124.1328125 508.875 124.1328125 C508.875 125.1228125 508.875 126.1128125 508.875 127.1328125 C509.865 127.1328125 510.855 127.1328125 511.875 127.1328125 C511.875 127.7928125 511.875 128.4528125 511.875 129.1328125 C512.638125 129.2359375 513.40125 129.3390625 514.1875 129.4453125 C517.13251284 130.19868788 518.12709356 130.68574348 519.875 133.1328125 C520.5625 135.8203125 520.5625 135.8203125 520.875 138.1328125 C521.535 138.1328125 522.195 138.1328125 522.875 138.1328125 C525.2033935 139.90239156 525.82788806 140.94864766 526.5625 143.8203125 C526.7171875 144.965 526.7171875 144.965 526.875 146.1328125 C528.195 146.4628125 529.515 146.7928125 530.875 147.1328125 C531.205 148.7828125 531.535 150.4328125 531.875 152.1328125 C532.535 152.1328125 533.195 152.1328125 533.875 152.1328125 C534.205 153.7828125 534.535 155.4328125 534.875 157.1328125 C535.865 157.4628125 536.855 157.7928125 537.875 158.1328125 C537.875 159.1228125 537.875 160.1128125 537.875 161.1328125 C538.535 161.1328125 539.195 161.1328125 539.875 161.1328125 C539.99875 162.3084375 539.99875 162.3084375 540.125 163.5078125 C540.3725 164.3740625 540.62 165.2403125 540.875 166.1328125 C541.535 166.4421875 542.195 166.7515625 542.875 167.0703125 C543.535 167.4209375 544.195 167.7715625 544.875 168.1328125 C545.625 171.2578125 545.625 171.2578125 545.875 174.1328125 C546.535 174.1328125 547.195 174.1328125 547.875 174.1328125 C548.205 176.1128125 548.535 178.0928125 548.875 180.1328125 C549.865 180.4628125 550.855 180.7928125 551.875 181.1328125 C551.875 182.7828125 551.875 184.4328125 551.875 186.1328125 C552.535 186.1328125 553.195 186.1328125 553.875 186.1328125 C554.205 188.1128125 554.535 190.0928125 554.875 192.1328125 C555.535 192.1328125 556.195 192.1328125 556.875 192.1328125 C558.91493514 197.06265575 560.28152968 200.71241675 559.875 206.1328125 C560.535 206.1328125 561.195 206.1328125 561.875 206.1328125 C562.205 209.4328125 562.535 212.7328125 562.875 216.1328125 C563.535 216.1328125 564.195 216.1328125 564.875 216.1328125 C565.205 220.0928125 565.535 224.0528125 565.875 228.1328125 C566.535 228.1328125 567.195 228.1328125 567.875 228.1328125 C568.90526944 234.82956386 568.97652799 241.3642801 568.875 248.1328125 C569.535 248.1328125 570.195 248.1328125 570.875 248.1328125 C570.875 263.6428125 570.875 279.1528125 570.875 295.1328125 C570.215 295.1328125 569.555 295.1328125 568.875 295.1328125 C568.89240234 296.20208984 568.89240234 296.20208984 568.91015625 297.29296875 C568.986264 305.37126306 568.13734307 312.35600819 565.875 320.1328125 C565.51229412 322.12769484 565.16859301 324.1265936 564.875 326.1328125 C564.215 326.1328125 563.555 326.1328125 562.875 326.1328125 C562.895625 327.0815625 562.91625 328.0303125 562.9375 329.0078125 C562.875 332.1328125 562.875 332.1328125 561.875 334.1328125 C563.68919434 334.12495728 563.68919434 334.12495728 565.54003906 334.11694336 C570.08007043 334.09867493 574.62009863 334.08730163 579.16015625 334.07788086 C581.11523996 334.07289012 583.07032 334.06609516 585.02539062 334.05737305 C605.85842367 333.96684095 605.85842367 333.96684095 615.875 335.1328125 C615.875 335.7928125 615.875 336.4528125 615.875 337.1328125 C616.72771484 337.11541016 616.72771484 337.11541016 617.59765625 337.09765625 C622.48170484 337.04058056 627.06003965 337.31324478 631.875 338.1328125 C631.875 338.7928125 631.875 339.4528125 631.875 340.1328125 C635.835 340.4628125 639.795 340.7928125 643.875 341.1328125 C643.875 341.7928125 643.875 342.4528125 643.875 343.1328125 C645.525 343.1328125 647.175 343.1328125 648.875 343.1328125 C648.875 343.7928125 648.875 344.4528125 648.875 345.1328125 C651.185 345.4628125 653.495 345.7928125 655.875 346.1328125 C655.875 346.7928125 655.875 347.4528125 655.875 348.1328125 C656.968125 348.1121875 658.06125 348.0915625 659.1875 348.0703125 C662.875 348.1328125 662.875 348.1328125 665.875 349.1328125 C665.875 349.7928125 665.875 350.4528125 665.875 351.1328125 C668.515 351.4628125 671.155 351.7928125 673.875 352.1328125 C673.875 352.7928125 673.875 353.4528125 673.875 354.1328125 C674.6175 354.2565625 675.36 354.3803125 676.125 354.5078125 C678.67641485 355.08767951 680.6017573 355.86989989 682.875 357.1328125 C682.875 357.7928125 682.875 358.4528125 682.875 359.1328125 C684.855 359.4628125 686.835 359.7928125 688.875 360.1328125 C688.875 360.7928125 688.875 361.4528125 688.875 362.1328125 C690.855 362.4628125 692.835 362.7928125 694.875 363.1328125 C694.875 363.7928125 694.875 364.4528125 694.875 365.1328125 C696.525 365.4628125 698.175 365.7928125 699.875 366.1328125 C699.875 366.7928125 699.875 367.4528125 699.875 368.1328125 C701.855 368.4628125 703.835 368.7928125 705.875 369.1328125 C705.875 369.7928125 705.875 370.4528125 705.875 371.1328125 C706.535 371.1328125 707.195 371.1328125 707.875 371.1328125 C708.205 371.7928125 708.535 372.4528125 708.875 373.1328125 C709.865 373.4628125 710.855 373.7928125 711.875 374.1328125 C711.875 374.7928125 711.875 375.4528125 711.875 376.1328125 C713.525 376.4628125 715.175 376.7928125 716.875 377.1328125 C716.875 377.7928125 716.875 378.4528125 716.875 379.1328125 C717.865 379.4628125 718.855 379.7928125 719.875 380.1328125 C719.875 380.7928125 719.875 381.4528125 719.875 382.1328125 C721.525 382.4628125 723.175 382.7928125 724.875 383.1328125 C724.978125 383.7721875 725.08125 384.4115625 725.1875 385.0703125 C725.414375 385.7509375 725.64125 386.4315625 725.875 387.1328125 C726.865 387.4628125 727.855 387.7928125 728.875 388.1328125 C728.875 388.7928125 728.875 389.4528125 728.875 390.1328125 C730.525 390.4628125 732.175 390.7928125 733.875 391.1328125 C733.875 391.7928125 733.875 392.4528125 733.875 393.1328125 C734.865 393.4628125 735.855 393.7928125 736.875 394.1328125 C736.875 394.7928125 736.875 395.4528125 736.875 396.1328125 C737.865 396.4628125 738.855 396.7928125 739.875 397.1328125 C739.875 397.7928125 739.875 398.4528125 739.875 399.1328125 C740.535 399.1328125 741.195 399.1328125 741.875 399.1328125 C743.5 400.5078125 743.5 400.5078125 744.875 402.1328125 C744.875 402.7928125 744.875 403.4528125 744.875 404.1328125 C745.865 404.4628125 746.855 404.7928125 747.875 405.1328125 C747.875 405.7928125 747.875 406.4528125 747.875 407.1328125 C748.865 407.4628125 749.855 407.7928125 750.875 408.1328125 C750.875 408.7928125 750.875 409.4528125 750.875 410.1328125 C751.535 410.1328125 752.195 410.1328125 752.875 410.1328125 C752.875 411.1228125 752.875 412.1128125 752.875 413.1328125 C753.865 413.1328125 754.855 413.1328125 755.875 413.1328125 C756.205 414.7828125 756.535 416.4328125 756.875 418.1328125 C758.195 418.4628125 759.515 418.7928125 760.875 419.1328125 C761.205 420.7828125 761.535 422.4328125 761.875 424.1328125 C762.865 424.4628125 763.855 424.7928125 764.875 425.1328125 C764.875 425.7928125 764.875 426.4528125 764.875 427.1328125 C765.535 427.1328125 766.195 427.1328125 766.875 427.1328125 C767.205 428.7828125 767.535 430.4328125 767.875 432.1328125 C768.865 432.4628125 769.855 432.7928125 770.875 433.1328125 C770.875 434.1228125 770.875 435.1128125 770.875 436.1328125 C771.535 436.1328125 772.195 436.1328125 772.875 436.1328125 C772.875 436.7928125 772.875 437.4528125 772.875 438.1328125 C773.535 438.1328125 774.195 438.1328125 774.875 438.1328125 C775.205 440.1128125 775.535 442.0928125 775.875 444.1328125 C776.535 444.1328125 777.195 444.1328125 777.875 444.1328125 C778.205 445.7828125 778.535 447.4328125 778.875 449.1328125 C779.535 449.1328125 780.195 449.1328125 780.875 449.1328125 C781.205 450.1228125 781.535 451.1128125 781.875 452.1328125 C782.535 452.4628125 783.195 452.7928125 783.875 453.1328125 C784.28229228 455.45437847 784.61938677 457.7896912 784.875 460.1328125 C785.535 460.1328125 786.195 460.1328125 786.875 460.1328125 C786.875 461.1228125 786.875 462.1128125 786.875 463.1328125 C787.535 463.1328125 788.195 463.1328125 788.875 463.1328125 C789.205 465.1128125 789.535 467.0928125 789.875 469.1328125 C790.535 469.1328125 791.195 469.1328125 791.875 469.1328125 C792.205 471.7728125 792.535 474.4128125 792.875 477.1328125 C793.535 477.1328125 794.195 477.1328125 794.875 477.1328125 C795.205 479.4428125 795.535 481.7528125 795.875 484.1328125 C796.535 484.1328125 797.195 484.1328125 797.875 484.1328125 C798.205 487.4328125 798.535 490.7328125 798.875 494.1328125 C799.535 494.1328125 800.195 494.1328125 800.875 494.1328125 C801.205 497.1028125 801.535 500.0728125 801.875 503.1328125 C802.535 503.1328125 803.195 503.1328125 803.875 503.1328125 C803.875 505.7728125 803.875 508.4128125 803.875 511.1328125 C804.535 511.1328125 805.195 511.1328125 805.875 511.1328125 C806.82761487 515.89588687 806.95833357 520.2994653 806.875 525.1328125 C807.535 525.1328125 808.195 525.1328125 808.875 525.1328125 C809.93559488 532.82212535 809.97428082 540.37787736 809.875 548.1328125 C810.535 548.1328125 811.195 548.1328125 811.875 548.1328125 C811.875 560.3428125 811.875 572.5528125 811.875 585.1328125 C811.215 585.1328125 810.555 585.1328125 809.875 585.1328125 C809.88660156 585.96683594 809.89820313 586.80085937 809.91015625 587.66015625 C809.96299793 594.25026912 809.76055068 600.60187624 808.875 607.1328125 C808.215 607.1328125 807.555 607.1328125 806.875 607.1328125 C806.88660156 607.70128906 806.89820313 608.26976562 806.91015625 608.85546875 C806.96723194 613.73951734 806.69456772 618.31785215 805.875 623.1328125 C805.215 623.1328125 804.555 623.1328125 803.875 623.1328125 C803.875 625.1128125 803.875 627.0928125 803.875 629.1328125 C803.215 629.1328125 802.555 629.1328125 801.875 629.1328125 C801.545 632.7628125 801.215 636.3928125 800.875 640.1328125 C800.215 640.1328125 799.555 640.1328125 798.875 640.1328125 C798.545 642.7728125 798.215 645.4128125 797.875 648.1328125 C797.215 648.1328125 796.555 648.1328125 795.875 648.1328125 C795.545 651.1028125 795.215 654.0728125 794.875 657.1328125 C794.215 657.1328125 793.555 657.1328125 792.875 657.1328125 C792.545 659.1128125 792.215 661.0928125 791.875 663.1328125 C791.215 663.1328125 790.555 663.1328125 789.875 663.1328125 C789.545 665.1128125 789.215 667.0928125 788.875 669.1328125 C788.215 669.1328125 787.555 669.1328125 786.875 669.1328125 C786.875 670.1228125 786.875 671.1128125 786.875 672.1328125 C786.215 672.1328125 785.555 672.1328125 784.875 672.1328125 C784.545 674.4428125 784.215 676.7528125 783.875 679.1328125 C783.215 679.1328125 782.555 679.1328125 781.875 679.1328125 C781.545 680.4528125 781.215 681.7728125 780.875 683.1328125 C780.215 683.1328125 779.555 683.1328125 778.875 683.1328125 C778.545 685.1128125 778.215 687.0928125 777.875 689.1328125 C777.215 689.1328125 776.555 689.1328125 775.875 689.1328125 C775.545 690.7828125 775.215 692.4328125 774.875 694.1328125 C774.215 694.1328125 773.555 694.1328125 772.875 694.1328125 C772.875 694.7928125 772.875 695.4528125 772.875 696.1328125 C772.215 696.1328125 771.555 696.1328125 770.875 696.1328125 C770.545 697.4528125 770.215 698.7728125 769.875 700.1328125 C769.215 700.1328125 768.555 700.1328125 767.875 700.1328125 C767.545 701.7828125 767.215 703.4328125 766.875 705.1328125 C766.215 705.1328125 765.555 705.1328125 764.875 705.1328125 C764.771875 705.8959375 764.66875 706.6590625 764.5625 707.4453125 C763.82788806 710.31697734 763.2033935 711.36323344 760.875 713.1328125 C760.215 713.1328125 759.555 713.1328125 758.875 713.1328125 C758.875 714.1228125 758.875 715.1128125 758.875 716.1328125 C757.5 717.8203125 757.5 717.8203125 755.875 719.1328125 C755.215 719.1328125 754.555 719.1328125 753.875 719.1328125 C753.545 720.1228125 753.215 721.1128125 752.875 722.1328125 C752.215 722.1328125 751.555 722.1328125 750.875 722.1328125 C750.545 723.1228125 750.215 724.1128125 749.875 725.1328125 C749.215 725.1328125 748.555 725.1328125 747.875 725.1328125 C747.545 726.1228125 747.215 727.1128125 746.875 728.1328125 C746.215 728.1328125 745.555 728.1328125 744.875 728.1328125 C744.875 728.7928125 744.875 729.4528125 744.875 730.1328125 C744.215 730.1328125 743.555 730.1328125 742.875 730.1328125 C742.875 731.1228125 742.875 732.1128125 742.875 733.1328125 C741.885 733.1328125 740.895 733.1328125 739.875 733.1328125 C739.545 734.1228125 739.215 735.1128125 738.875 736.1328125 C738.215 736.1328125 737.555 736.1328125 736.875 736.1328125 C736.545 737.1228125 736.215 738.1128125 735.875 739.1328125 C735.215 739.1328125 734.555 739.1328125 733.875 739.1328125 C733.545 740.1228125 733.215 741.1128125 732.875 742.1328125 C732.215 742.1328125 731.555 742.1328125 730.875 742.1328125 C730.875 742.7928125 730.875 743.4528125 730.875 744.1328125 C729.225 744.4628125 727.575 744.7928125 725.875 745.1328125 C725.771875 745.7309375 725.66875 746.3290625 725.5625 746.9453125 C724.75178951 749.52484587 724.03244833 750.51472625 721.875 752.1328125 C719.1875 752.8203125 719.1875 752.8203125 716.875 753.1328125 C716.875 753.7928125 716.875 754.4528125 716.875 755.1328125 C715.225 755.4628125 713.575 755.7928125 711.875 756.1328125 C711.545 757.1228125 711.215 758.1128125 710.875 759.1328125 C709.885 759.1328125 708.895 759.1328125 707.875 759.1328125 C707.875 759.7928125 707.875 760.4528125 707.875 761.1328125 C707.215 761.1328125 706.555 761.1328125 705.875 761.1328125 C705.875 761.7928125 705.875 762.4528125 705.875 763.1328125 C704.60808493 763.80689558 703.33629251 764.47181747 702.0625 765.1328125 C701.35480469 765.5040625 700.64710937 765.8753125 699.91796875 766.2578125 C697.875 767.1328125 697.875 767.1328125 694.875 767.1328125 C694.545 768.1228125 694.215 769.1128125 693.875 770.1328125 C692.885 770.1328125 691.895 770.1328125 690.875 770.1328125 C690.875 770.7928125 690.875 771.4528125 690.875 772.1328125 C688.565 772.4628125 686.255 772.7928125 683.875 773.1328125 C683.875 773.7928125 683.875 774.4528125 683.875 775.1328125 C682.885 775.1328125 681.895 775.1328125 680.875 775.1328125 C680.875 775.7928125 680.875 776.4528125 680.875 777.1328125 C678.895 777.4628125 676.915 777.7928125 674.875 778.1328125 C674.875 778.7928125 674.875 779.4528125 674.875 780.1328125 C672.235 780.4628125 669.595 780.7928125 666.875 781.1328125 C666.875 781.7928125 666.875 782.4528125 666.875 783.1328125 C664.98251181 783.80891673 663.0858398 784.47331689 661.1875 785.1328125 C660.13175781 785.5040625 659.07601563 785.8753125 657.98828125 786.2578125 C655.09137944 787.0719982 652.85799377 787.30991046 649.875 787.1328125 C649.875 787.7928125 649.875 788.4528125 649.875 789.1328125 C646.20089215 790.30852701 642.70570817 790.20647996 638.875 790.1328125 C638.875 790.7928125 638.875 791.4528125 638.875 792.1328125 C637.555 792.1328125 636.235 792.1328125 634.875 792.1328125 C634.875 792.7928125 634.875 793.4528125 634.875 794.1328125 C629.595 794.4628125 624.315 794.7928125 618.875 795.1328125 C618.875 795.7928125 618.875 796.4528125 618.875 797.1328125 C609.51587671 798.12544679 600.27105802 798.24012788 590.875 798.1328125 C590.875 798.7928125 590.875 799.4528125 590.875 800.1328125 C583.285 800.1328125 575.695 800.1328125 567.875 800.1328125 C567.875 799.4728125 567.875 798.8128125 567.875 798.1328125 C566.63105469 798.14441406 565.38710938 798.15601563 564.10546875 798.16796875 C555.30855571 798.22452349 546.62083651 798.23341215 537.875 797.1328125 C537.875 796.4728125 537.875 795.8128125 537.875 795.1328125 C532.925 794.8028125 527.975 794.4728125 522.875 794.1328125 C522.875 793.4728125 522.875 792.8128125 522.875 792.1328125 C521.225 792.1328125 519.575 792.1328125 517.875 792.1328125 C517.875 791.4728125 517.875 790.8128125 517.875 790.1328125 C513.915 789.8028125 509.955 789.4728125 505.875 789.1328125 C505.875 788.4728125 505.875 787.8128125 505.875 787.1328125 C503.235 786.8028125 500.595 786.4728125 497.875 786.1328125 C497.875 785.4728125 497.875 784.8128125 497.875 784.1328125 C495.235 783.8028125 492.595 783.4728125 489.875 783.1328125 C489.875 782.4728125 489.875 781.8128125 489.875 781.1328125 C487.895 780.8028125 485.915 780.4728125 483.875 780.1328125 C483.875 779.4728125 483.875 778.8128125 483.875 778.1328125 C482.8025 778.0090625 481.73 777.8853125 480.625 777.7578125 C477.49636385 777.23637314 475.54019576 776.73192996 472.875 775.1328125 C472.875 774.4728125 472.875 773.8128125 472.875 773.1328125 C471.225 772.8028125 469.575 772.4728125 467.875 772.1328125 C467.875 771.4728125 467.875 770.8128125 467.875 770.1328125 C465.895 769.8028125 463.915 769.4728125 461.875 769.1328125 C461.875 768.4728125 461.875 767.8128125 461.875 767.1328125 C459.895 766.8028125 457.915 766.4728125 455.875 766.1328125 C455.875 765.4728125 455.875 764.8128125 455.875 764.1328125 C455.070625 763.8646875 454.26625 763.5965625 453.4375 763.3203125 C452.1690625 762.7325 452.1690625 762.7325 450.875 762.1328125 C450.545 761.1428125 450.215 760.1528125 449.875 759.1328125 C447.895 758.8028125 445.915 758.4728125 443.875 758.1328125 C443.875 757.4728125 443.875 756.8128125 443.875 756.1328125 C443.2975 755.8440625 442.72 755.5553125 442.125 755.2578125 C440.04166667 754.21614583 437.95833333 753.17447917 435.875 752.1328125 C435.875 751.4728125 435.875 750.8128125 435.875 750.1328125 C434.225 749.4728125 432.575 748.8128125 430.875 748.1328125 C430.875 747.1428125 430.875 746.1528125 430.875 745.1328125 C429.555 744.8028125 428.235 744.4728125 426.875 744.1328125 C426.875 743.4728125 426.875 742.8128125 426.875 742.1328125 C425.555 742.1328125 424.235 742.1328125 422.875 742.1328125 C422.545 742.7928125 422.215 743.4528125 421.875 744.1328125 C421.215 744.1328125 420.555 744.1328125 419.875 744.1328125 C419.7821875 745.2465625 419.7821875 745.2465625 419.6875 746.3828125 C418.62071489 749.99346979 416.8925693 750.97740586 413.875 753.1328125 C413.0396875 753.9990625 413.0396875 753.9990625 412.1875 754.8828125 C410.875 756.1328125 410.875 756.1328125 408.875 756.1328125 C408.545 757.1228125 408.215 758.1128125 407.875 759.1328125 C407.215 759.1328125 406.555 759.1328125 405.875 759.1328125 C405.813125 759.7103125 405.75125 760.2878125 405.6875 760.8828125 C404.5562921 764.01538821 402.49552199 765.16742101 399.875 767.1328125 C399.545 767.7928125 399.215 768.4528125 398.875 769.1328125 C397.555 769.1328125 396.235 769.1328125 394.875 769.1328125 C394.545 770.4528125 394.215 771.7728125 393.875 773.1328125 C392.885 773.1328125 391.895 773.1328125 390.875 773.1328125 C390.875 773.7928125 390.875 774.4528125 390.875 775.1328125 C390.215 775.1328125 389.555 775.1328125 388.875 775.1328125 C388.875 775.7928125 388.875 776.4528125 388.875 777.1328125 C387.885 777.4628125 386.895 777.7928125 385.875 778.1328125 C385.1325 778.90625 385.1325 778.90625 384.375 779.6953125 C382.875 781.1328125 382.875 781.1328125 379.875 781.1328125 C379.875 781.7928125 379.875 782.4528125 379.875 783.1328125 C378.10542094 785.461206 377.05916484 786.08570056 374.1875 786.8203125 C373.0428125 786.975 373.0428125 786.975 371.875 787.1328125 C371.875 787.7928125 371.875 788.4528125 371.875 789.1328125 C369.895 789.4628125 367.915 789.7928125 365.875 790.1328125 C365.875 790.7928125 365.875 791.4528125 365.875 792.1328125 C365.215 792.1328125 364.555 792.1328125 363.875 792.1328125 C363.875 792.7928125 363.875 793.4528125 363.875 794.1328125 C357.375 798.1328125 357.375 798.1328125 352.875 798.1328125 C352.875 798.7928125 352.875 799.4528125 352.875 800.1328125 C350.895 800.1328125 348.915 800.1328125 346.875 800.1328125 C346.875 801.1228125 346.875 802.1128125 346.875 803.1328125 C344.895 803.4628125 342.915 803.7928125 340.875 804.1328125 C340.875 804.7928125 340.875 805.4528125 340.875 806.1328125 C339.225 806.1328125 337.575 806.1328125 335.875 806.1328125 C335.875 806.7928125 335.875 807.4528125 335.875 808.1328125 C333.895 808.4628125 331.915 808.7928125 329.875 809.1328125 C329.875 809.7928125 329.875 810.4528125 329.875 811.1328125 C326.905 811.4628125 323.935 811.7928125 320.875 812.1328125 C320.875 812.7928125 320.875 813.4528125 320.875 814.1328125 C317.905 814.4628125 314.935 814.7928125 311.875 815.1328125 C311.875 815.7928125 311.875 816.4528125 311.875 817.1328125 C311.09253906 817.26558594 310.31007813 817.39835937 309.50390625 817.53515625 C308.49199219 817.71175781 307.48007812 817.88835938 306.4375 818.0703125 C305.42816406 818.24433594 304.41882813 818.41835937 303.37890625 818.59765625 C300.9462562 818.88032347 300.9462562 818.88032347 299.875 820.1328125 C297.87541636 820.17362033 295.87454746 820.17535606 293.875 820.1328125 C293.875 820.7928125 293.875 821.4528125 293.875 822.1328125 C287.80803301 822.90322101 281.98985027 823.22987362 275.875 823.1328125 C275.875 823.7928125 275.875 824.4528125 275.875 825.1328125 C254.46274093 827.10499426 232.29845672 826.93961006 210.875 825.1328125 C210.875 824.4728125 210.875 823.8128125 210.875 823.1328125 C210.17375 823.14441406 209.4725 823.15601563 208.75 823.16796875 C203.01386898 823.22252434 197.54721747 822.98899627 191.875 822.1328125 C191.875 821.4728125 191.875 820.8128125 191.875 820.1328125 C190.225 820.1328125 188.575 820.1328125 186.875 820.1328125 C186.875 819.4728125 186.875 818.8128125 186.875 818.1328125 C182.915 817.8028125 178.955 817.4728125 174.875 817.1328125 C174.875 816.4728125 174.875 815.8128125 174.875 815.1328125 C174.0396875 815.07673828 174.0396875 815.07673828 173.1875 815.01953125 C167.58874576 814.53720614 163.05834636 813.30039371 157.875 811.1328125 C157.875 810.4728125 157.875 809.8128125 157.875 809.1328125 C155.235 808.8028125 152.595 808.4728125 149.875 808.1328125 C149.875 807.4728125 149.875 806.8128125 149.875 806.1328125 C148.885 806.1328125 147.895 806.1328125 146.875 806.1328125 C146.875 805.4728125 146.875 804.8128125 146.875 804.1328125 C144.895 803.8028125 142.915 803.4728125 140.875 803.1328125 C140.875 802.4728125 140.875 801.8128125 140.875 801.1328125 C138.565 800.8028125 136.255 800.4728125 133.875 800.1328125 C133.875 799.4728125 133.875 798.8128125 133.875 798.1328125 C132.905625 798.0090625 131.93625 797.8853125 130.9375 797.7578125 C129.926875 797.5515625 128.91625 797.3453125 127.875 797.1328125 C127.545 796.4728125 127.215 795.8128125 126.875 795.1328125 C124.34766765 794.47726131 124.34766765 794.47726131 121.875 794.1328125 C121.875 793.4728125 121.875 792.8128125 121.875 792.1328125 C121.215 792.1328125 120.555 792.1328125 119.875 792.1328125 C119.545 791.4728125 119.215 790.8128125 118.875 790.1328125 C117.885 789.8028125 116.895 789.4728125 115.875 789.1328125 C115.875 788.4728125 115.875 787.8128125 115.875 787.1328125 C115.070625 787.0090625 114.26625 786.8853125 113.4375 786.7578125 C112.591875 786.5515625 111.74625 786.3453125 110.875 786.1328125 C110.545 785.4728125 110.215 784.8128125 109.875 784.1328125 C109.25625 783.9884375 108.6375 783.8440625 108 783.6953125 C105.47841474 783.02783405 104.4894908 782.150926 102.875 780.1328125 C102.875 779.4728125 102.875 778.8128125 102.875 778.1328125 C101.555 777.8028125 100.235 777.4728125 98.875 777.1328125 C98.875 776.4728125 98.875 775.8128125 98.875 775.1328125 C98.215 775.1328125 97.555 775.1328125 96.875 775.1328125 C96.545 774.4728125 96.215 773.8128125 95.875 773.1328125 C94.13597501 772.18127053 92.396803 771.22999405 90.65625 770.28125 C88.14939615 768.66498897 86.61826383 766.5217296 84.875 764.1328125 C84.215 763.8028125 83.555 763.4728125 82.875 763.1328125 C82.875 762.4728125 82.875 761.8128125 82.875 761.1328125 C81.885 761.1328125 80.895 761.1328125 79.875 761.1328125 C79.875 760.1428125 79.875 759.1528125 79.875 758.1328125 C78.885 758.1328125 77.895 758.1328125 76.875 758.1328125 C76.875 757.4728125 76.875 756.8128125 76.875 756.1328125 C76.215 756.1328125 75.555 756.1328125 74.875 756.1328125 C74.875 755.1428125 74.875 754.1528125 74.875 753.1328125 C73.885 753.1328125 72.895 753.1328125 71.875 753.1328125 C71.875 754.1228125 71.875 755.1128125 71.875 756.1328125 C70.885 756.1328125 69.895 756.1328125 68.875 756.1328125 C68.545 757.1228125 68.215 758.1128125 67.875 759.1328125 C67.215 759.1328125 66.555 759.1328125 65.875 759.1328125 C65.875 759.7928125 65.875 760.4528125 65.875 761.1328125 C65.215 761.1328125 64.555 761.1328125 63.875 761.1328125 C63.545 762.1228125 63.215 763.1128125 62.875 764.1328125 C61.885 764.1328125 60.895 764.1328125 59.875 764.1328125 C59.875 764.7928125 59.875 765.4528125 59.875 766.1328125 C55.52205882 770.1328125 55.52205882 770.1328125 51.875 770.1328125 C51.545 771.1228125 51.215 772.1128125 50.875 773.1328125 C49.555 773.1328125 48.235 773.1328125 46.875 773.1328125 C46.50375 774.091875 46.50375 774.091875 46.125 775.0703125 C44.875 777.1328125 44.875 777.1328125 42.8125 777.6953125 C42.173125 777.8396875 41.53375 777.9840625 40.875 778.1328125 C40.545 779.1228125 40.215 780.1128125 39.875 781.1328125 C38.885 781.1328125 37.895 781.1328125 36.875 781.1328125 C36.875 781.7928125 36.875 782.4528125 36.875 783.1328125 C35.225 783.4628125 33.575 783.7928125 31.875 784.1328125 C31.875 784.7928125 31.875 785.4528125 31.875 786.1328125 C30.225 786.4628125 28.575 786.7928125 26.875 787.1328125 C26.875 787.7928125 26.875 788.4528125 26.875 789.1328125 C25.885 789.4628125 24.895 789.7928125 23.875 790.1328125 C23.545 790.7928125 23.215 791.4528125 22.875 792.1328125 C21.555 792.1328125 20.235 792.1328125 18.875 792.1328125 C18.875 792.7928125 18.875 793.4528125 18.875 794.1328125 C16.895 794.4628125 14.915 794.7928125 12.875 795.1328125 C12.875 795.7928125 12.875 796.4528125 12.875 797.1328125 C10.895 797.4628125 8.915 797.7928125 6.875 798.1328125 C6.875 798.7928125 6.875 799.4528125 6.875 800.1328125 C4.895 800.4628125 2.915 800.7928125 0.875 801.1328125 C0.875 801.7928125 0.875 802.4528125 0.875 803.1328125 C-1.765 803.4628125 -4.405 803.7928125 -7.125 804.1328125 C-7.125 804.7928125 -7.125 805.4528125 -7.125 806.1328125 C-8.115 806.1328125 -9.105 806.1328125 -10.125 806.1328125 C-10.125 806.7928125 -10.125 807.4528125 -10.125 808.1328125 C-12.765 808.4628125 -15.405 808.7928125 -18.125 809.1328125 C-18.125 809.7928125 -18.125 810.4528125 -18.125 811.1328125 C-20.765 811.4628125 -23.405 811.7928125 -26.125 812.1328125 C-26.125 812.7928125 -26.125 813.4528125 -26.125 814.1328125 C-29.095 814.4628125 -32.065 814.7928125 -35.125 815.1328125 C-35.125 815.7928125 -35.125 816.4528125 -35.125 817.1328125 C-39.085 817.4628125 -43.045 817.7928125 -47.125 818.1328125 C-47.125 818.7928125 -47.125 819.4528125 -47.125 820.1328125 C-48.775 820.1328125 -50.425 820.1328125 -52.125 820.1328125 C-52.125 820.7928125 -52.125 821.4528125 -52.125 822.1328125 C-57.405 822.4628125 -62.685 822.7928125 -68.125 823.1328125 C-68.125 823.7928125 -68.125 824.4528125 -68.125 825.1328125 C-75.16405044 826.07135256 -82.02772572 826.24089282 -89.125 826.1328125 C-89.125 826.7928125 -89.125 827.4528125 -89.125 828.1328125 C-110.48509627 829.55851618 -131.7624173 829.46946572 -153.125 828.1328125 C-153.125 827.4728125 -153.125 826.8128125 -153.125 826.1328125 C-153.87523437 826.14441406 -154.62546875 826.15601563 -155.3984375 826.16796875 C-162.04837417 826.2265954 -168.52504873 825.95050558 -175.125 825.1328125 C-175.125 824.4728125 -175.125 823.8128125 -175.125 823.1328125 C-176.8884375 823.16375 -176.8884375 823.16375 -178.6875 823.1953125 C-182.59913467 823.20228511 -186.26997944 822.77531593 -190.125 822.1328125 C-190.125 821.4728125 -190.125 820.8128125 -190.125 820.1328125 C-191.775 820.1328125 -193.425 820.1328125 -195.125 820.1328125 C-195.125 819.4728125 -195.125 818.8128125 -195.125 818.1328125 C-198.755 817.8028125 -202.385 817.4728125 -206.125 817.1328125 C-206.125 816.4728125 -206.125 815.8128125 -206.125 815.1328125 C-209.095 814.8028125 -212.065 814.4728125 -215.125 814.1328125 C-215.125 813.4728125 -215.125 812.8128125 -215.125 812.1328125 C-217.765 811.8028125 -220.405 811.4728125 -223.125 811.1328125 C-223.125 810.4728125 -223.125 809.8128125 -223.125 809.1328125 C-224.3625 809.0090625 -225.6 808.8853125 -226.875 808.7578125 C-230.0012197 808.37534945 -232.41379237 807.82731727 -235.125 806.1328125 C-235.125 805.4728125 -235.125 804.8128125 -235.125 804.1328125 C-237.435 803.8028125 -239.745 803.4728125 -242.125 803.1328125 C-242.125 802.4728125 -242.125 801.8128125 -242.125 801.1328125 C-244.105 800.8028125 -246.085 800.4728125 -248.125 800.1328125 C-248.125 799.4728125 -248.125 798.8128125 -248.125 798.1328125 C-250.105 797.8028125 -252.085 797.4728125 -254.125 797.1328125 C-254.125 796.4728125 -254.125 795.8128125 -254.125 795.1328125 C-256.105 794.8028125 -258.085 794.4728125 -260.125 794.1328125 C-260.125 793.4728125 -260.125 792.8128125 -260.125 792.1328125 C-261.115 792.1328125 -262.105 792.1328125 -263.125 792.1328125 C-263.125 791.4728125 -263.125 790.8128125 -263.125 790.1328125 C-264.775 789.8028125 -266.425 789.4728125 -268.125 789.1328125 C-268.125 788.4728125 -268.125 787.8128125 -268.125 787.1328125 C-270.105 786.8028125 -272.085 786.4728125 -274.125 786.1328125 C-274.125 785.4728125 -274.125 784.8128125 -274.125 784.1328125 C-275.115 783.8028125 -276.105 783.4728125 -277.125 783.1328125 C-277.125 782.4728125 -277.125 781.8128125 -277.125 781.1328125 C-278.0325 781.0503125 -278.94 780.9678125 -279.875 780.8828125 C-283.58258451 780.02721607 -284.62732761 778.88886479 -287.125 776.1328125 C-288.115 775.8028125 -289.105 775.4728125 -290.125 775.1328125 C-290.455 774.4728125 -290.785 773.8128125 -291.125 773.1328125 C-292.115 772.8028125 -293.105 772.4728125 -294.125 772.1328125 C-294.125 771.4728125 -294.125 770.8128125 -294.125 770.1328125 C-294.7025 769.8440625 -295.28 769.5553125 -295.875 769.2578125 C-297.95833333 768.21614583 -300.04166667 767.17447917 -302.125 766.1328125 C-302.125 765.4728125 -302.125 764.8128125 -302.125 764.1328125 C-303.115 763.8028125 -304.105 763.4728125 -305.125 763.1328125 C-305.125 762.4728125 -305.125 761.8128125 -305.125 761.1328125 C-305.785 761.1328125 -306.445 761.1328125 -307.125 761.1328125 C-308.75 759.7578125 -308.75 759.7578125 -310.125 758.1328125 C-310.125 757.4728125 -310.125 756.8128125 -310.125 756.1328125 C-310.8675 756.0709375 -311.61 756.0090625 -312.375 755.9453125 C-315.98565729 754.87852739 -316.96959336 753.1503818 -319.125 750.1328125 C-319.7025 749.5759375 -320.28 749.0190625 -320.875 748.4453125 C-322.125 747.1328125 -322.125 747.1328125 -322.125 745.1328125 C-323.775 744.8028125 -325.425 744.4728125 -327.125 744.1328125 C-327.125 743.1428125 -327.125 742.1528125 -327.125 741.1328125 C-327.785 741.1328125 -328.445 741.1328125 -329.125 741.1328125 C-330.49573786 739.49677054 -331.82555256 737.82603189 -333.125 736.1328125 C-333.7025 735.5759375 -334.28 735.0190625 -334.875 734.4453125 C-336.125 733.1328125 -336.125 733.1328125 -336.125 731.1328125 C-336.785 731.1328125 -337.445 731.1328125 -338.125 731.1328125 C-338.62 729.6478125 -338.62 729.6478125 -339.125 728.1328125 C-339.785 727.8028125 -340.445 727.4728125 -341.125 727.1328125 C-341.125 726.4728125 -341.125 725.8128125 -341.125 725.1328125 C-342.115 724.8028125 -343.105 724.4728125 -344.125 724.1328125 C-344.125 723.4728125 -344.125 722.8128125 -344.125 722.1328125 C-344.785 722.1328125 -345.445 722.1328125 -346.125 722.1328125 C-346.455 720.4828125 -346.785 718.8328125 -347.125 717.1328125 C-348.115 716.8028125 -349.105 716.4728125 -350.125 716.1328125 C-350.125 715.4728125 -350.125 714.8128125 -350.125 714.1328125 C-350.785 714.1328125 -351.445 714.1328125 -352.125 714.1328125 C-352.62 712.6478125 -352.62 712.6478125 -353.125 711.1328125 C-353.785 710.8028125 -354.445 710.4728125 -355.125 710.1328125 C-357.1345568 707.19576794 -358.125 705.74058765 -358.125 702.1328125 C-358.785 702.1328125 -359.445 702.1328125 -360.125 702.1328125 C-360.455 700.4828125 -360.785 698.8328125 -361.125 697.1328125 C-362.115 696.8028125 -363.105 696.4728125 -364.125 696.1328125 C-364.125 695.4728125 -364.125 694.8128125 -364.125 694.1328125 C-364.785 694.1328125 -365.445 694.1328125 -366.125 694.1328125 C-366.62 691.1628125 -366.62 691.1628125 -367.125 688.1328125 C-367.785 688.1328125 -368.445 688.1328125 -369.125 688.1328125 C-369.125 687.1428125 -369.125 686.1528125 -369.125 685.1328125 C-369.785 685.1328125 -370.445 685.1328125 -371.125 685.1328125 C-371.62 682.1628125 -371.62 682.1628125 -372.125 679.1328125 C-372.785 679.1328125 -373.445 679.1328125 -374.125 679.1328125 C-374.455 677.4828125 -374.785 675.8328125 -375.125 674.1328125 C-375.785 674.1328125 -376.445 674.1328125 -377.125 674.1328125 C-377.455 672.1528125 -377.785 670.1728125 -378.125 668.1328125 C-378.785 668.1328125 -379.445 668.1328125 -380.125 668.1328125 C-380.455 666.1528125 -380.785 664.1728125 -381.125 662.1328125 C-381.785 662.1328125 -382.445 662.1328125 -383.125 662.1328125 C-383.125 660.8128125 -383.125 659.4928125 -383.125 658.1328125 C-383.785 658.1328125 -384.445 658.1328125 -385.125 658.1328125 C-385.455 655.8228125 -385.785 653.5128125 -386.125 651.1328125 C-386.785 651.1328125 -387.445 651.1328125 -388.125 651.1328125 C-388.62 647.1728125 -388.62 647.1728125 -389.125 643.1328125 C-389.785 643.1328125 -390.445 643.1328125 -391.125 643.1328125 C-391.455 640.1628125 -391.785 637.1928125 -392.125 634.1328125 C-392.785 634.1328125 -393.445 634.1328125 -394.125 634.1328125 C-394.455 630.8328125 -394.785 627.5328125 -395.125 624.1328125 C-395.785 624.1328125 -396.445 624.1328125 -397.125 624.1328125 C-397.455 620.5028125 -397.785 616.8728125 -398.125 613.1328125 C-398.785 613.1328125 -399.445 613.1328125 -400.125 613.1328125 C-400.125 611.1528125 -400.125 609.1728125 -400.125 607.1328125 C-400.785 607.1328125 -401.445 607.1328125 -402.125 607.1328125 C-402.455 602.1828125 -402.785 597.2328125 -403.125 592.1328125 C-403.785 592.1328125 -404.445 592.1328125 -405.125 592.1328125 C-406.03660286 584.77487517 -406.23959026 577.54298273 -406.125 570.1328125 C-406.785 570.1328125 -407.445 570.1328125 -408.125 570.1328125 C-408.125 551.6528125 -408.125 533.1728125 -408.125 514.1328125 C-407.465 514.1328125 -406.805 514.1328125 -406.125 514.1328125 C-406.13660156 513.47796875 -406.14820313 512.823125 -406.16015625 512.1484375 C-406.22995147 505.0891491 -405.81148769 498.15705262 -405.125 491.1328125 C-404.465 491.1328125 -403.805 491.1328125 -403.125 491.1328125 C-402.795 485.8528125 -402.465 480.5728125 -402.125 475.1328125 C-401.465 475.1328125 -400.805 475.1328125 -400.125 475.1328125 C-400.125 473.1528125 -400.125 471.1728125 -400.125 469.1328125 C-399.465 469.1328125 -398.805 469.1328125 -398.125 469.1328125 C-397.795 465.5028125 -397.465 461.8728125 -397.125 458.1328125 C-396.465 458.1328125 -395.805 458.1328125 -395.125 458.1328125 C-394.795 455.1628125 -394.465 452.1928125 -394.125 449.1328125 C-393.465 449.1328125 -392.805 449.1328125 -392.125 449.1328125 C-391.795 446.4928125 -391.465 443.8528125 -391.125 441.1328125 C-390.465 441.1328125 -389.805 441.1328125 -389.125 441.1328125 C-388.795 438.4928125 -388.465 435.8528125 -388.125 433.1328125 C-387.465 433.1328125 -386.805 433.1328125 -386.125 433.1328125 C-386.00125 432.0603125 -385.8775 430.9878125 -385.75 429.8828125 C-385.22856064 426.75417635 -384.72411746 424.79800826 -383.125 422.1328125 C-382.465 422.1328125 -381.805 422.1328125 -381.125 422.1328125 C-380.795 419.8228125 -380.465 417.5128125 -380.125 415.1328125 C-379.465 415.1328125 -378.805 415.1328125 -378.125 415.1328125 C-377.795 412.8228125 -377.465 410.5128125 -377.125 408.1328125 C-376.465 408.1328125 -375.805 408.1328125 -375.125 408.1328125 C-374.795 406.8128125 -374.465 405.4928125 -374.125 404.1328125 C-373.465 404.1328125 -372.805 404.1328125 -372.125 404.1328125 C-371.815625 403.0396875 -371.50625 401.9465625 -371.1875 400.8203125 C-370.54162103 398.57873256 -369.8626883 396.3458774 -369.125 394.1328125 C-368.465 393.8028125 -367.805 393.4728125 -367.125 393.1328125 C-366.795 392.1428125 -366.465 391.1528125 -366.125 390.1328125 C-365.465 390.1328125 -364.805 390.1328125 -364.125 390.1328125 C-363.795 388.4828125 -363.465 386.8328125 -363.125 385.1328125 C-362.465 385.1328125 -361.805 385.1328125 -361.125 385.1328125 C-360.795 383.4828125 -360.465 381.8328125 -360.125 380.1328125 C-359.465 380.1328125 -358.805 380.1328125 -358.125 380.1328125 C-357.795 378.8128125 -357.465 377.4928125 -357.125 376.1328125 C-356.465 376.1328125 -355.805 376.1328125 -355.125 376.1328125 C-355.125 375.4728125 -355.125 374.8128125 -355.125 374.1328125 C-354.465 374.1328125 -353.805 374.1328125 -353.125 374.1328125 C-352.939375 372.92625 -352.939375 372.92625 -352.75 371.6953125 C-352.54375 370.8496875 -352.3375 370.0040625 -352.125 369.1328125 C-351.465 368.8028125 -350.805 368.4728125 -350.125 368.1328125 C-349.795 367.1428125 -349.465 366.1528125 -349.125 365.1328125 C-348.465 365.1328125 -347.805 365.1328125 -347.125 365.1328125 C-346.795 364.1428125 -346.465 363.1528125 -346.125 362.1328125 C-345.465 362.1328125 -344.805 362.1328125 -344.125 362.1328125 C-343.795 360.4828125 -343.465 358.8328125 -343.125 357.1328125 C-342.465 357.1328125 -341.805 357.1328125 -341.125 357.1328125 C-341.125 356.4728125 -341.125 355.8128125 -341.125 355.1328125 C-340.465 355.1328125 -339.805 355.1328125 -339.125 355.1328125 C-339.125 354.1428125 -339.125 353.1528125 -339.125 352.1328125 C-338.135 351.8028125 -337.145 351.4728125 -336.125 351.1328125 C-335.795 350.4728125 -335.465 349.8128125 -335.125 349.1328125 C-334.465 349.1328125 -333.805 349.1328125 -333.125 349.1328125 C-332.795 347.8128125 -332.465 346.4928125 -332.125 345.1328125 C-331.135 345.1328125 -330.145 345.1328125 -329.125 345.1328125 C-329.125 344.4728125 -329.125 343.8128125 -329.125 343.1328125 C-328.465 343.1328125 -327.805 343.1328125 -327.125 343.1328125 C-327.125 342.1428125 -327.125 341.1528125 -327.125 340.1328125 C-326.465 340.1328125 -325.805 340.1328125 -325.125 340.1328125 C-324.795 339.1428125 -324.465 338.1528125 -324.125 337.1328125 C-323.465 337.1328125 -322.805 337.1328125 -322.125 337.1328125 C-321.795 336.1428125 -321.465 335.1528125 -321.125 334.1328125 C-320.465 334.1328125 -319.805 334.1328125 -319.125 334.1328125 C-319.125 333.4728125 -319.125 332.8128125 -319.125 332.1328125 C-318.135 331.8028125 -317.145 331.4728125 -316.125 331.1328125 C-315.795 330.1428125 -315.465 329.1528125 -315.125 328.1328125 C-314.465 328.1328125 -313.805 328.1328125 -313.125 328.1328125 C-313.125 327.4728125 -313.125 326.8128125 -313.125 326.1328125 C-312.135 326.1328125 -311.145 326.1328125 -310.125 326.1328125 C-310.125 325.4728125 -310.125 324.8128125 -310.125 324.1328125 C-305.77205882 320.1328125 -305.77205882 320.1328125 -302.125 320.1328125 C-302.125 319.1428125 -302.125 318.1528125 -302.125 317.1328125 C-301.135 317.1328125 -300.145 317.1328125 -299.125 317.1328125 C-298.795 316.1428125 -298.465 315.1528125 -298.125 314.1328125 C-297.465 314.1328125 -296.805 314.1328125 -296.125 314.1328125 C-296.125 313.4728125 -296.125 312.8128125 -296.125 312.1328125 C-295.135 312.1328125 -294.145 312.1328125 -293.125 312.1328125 C-293.125 311.4728125 -293.125 310.8128125 -293.125 310.1328125 C-291.35542094 307.804419 -290.30916484 307.17992444 -287.4375 306.4453125 C-286.674375 306.3421875 -285.91125 306.2390625 -285.125 306.1328125 C-285.125 305.4728125 -285.125 304.8128125 -285.125 304.1328125 C-283.475 303.8028125 -281.825 303.4728125 -280.125 303.1328125 C-279.795 302.1428125 -279.465 301.1528125 -279.125 300.1328125 C-277.475 300.1328125 -275.825 300.1328125 -274.125 300.1328125 C-273.795 298.8128125 -273.465 297.4928125 -273.125 296.1328125 C-271.475 295.8028125 -269.825 295.4728125 -268.125 295.1328125 C-268.125 294.4728125 -268.125 293.8128125 -268.125 293.1328125 C-266.145 292.8028125 -264.165 292.4728125 -262.125 292.1328125 C-262.125 291.4728125 -262.125 290.8128125 -262.125 290.1328125 C-260.475 289.8028125 -258.825 289.4728125 -257.125 289.1328125 C-257.125 288.4728125 -257.125 287.8128125 -257.125 287.1328125 C-255.145 286.8028125 -253.165 286.4728125 -251.125 286.1328125 C-251.125 285.4728125 -251.125 284.8128125 -251.125 284.1328125 C-250.135 284.1328125 -249.145 284.1328125 -248.125 284.1328125 C-248.125 283.4728125 -248.125 282.8128125 -248.125 282.1328125 C-246.145 281.8028125 -244.165 281.4728125 -242.125 281.1328125 C-242.125 280.4728125 -242.125 279.8128125 -242.125 279.1328125 C-239.485 278.8028125 -236.845 278.4728125 -234.125 278.1328125 C-234.125 277.4728125 -234.125 276.8128125 -234.125 276.1328125 C-231.485 275.8028125 -228.845 275.4728125 -226.125 275.1328125 C-226.125 274.4728125 -226.125 273.8128125 -226.125 273.1328125 C-223.485 272.8028125 -220.845 272.4728125 -218.125 272.1328125 C-218.125 266.8528125 -218.125 261.5728125 -218.125 256.1328125 C-218.785 256.1328125 -219.445 256.1328125 -220.125 256.1328125 C-220.15027002 249.60002464 -220.16783292 243.06724929 -220.17993164 236.53442383 C-220.18497317 234.31013518 -220.19180623 232.08584987 -220.20043945 229.86157227 C-220.21251298 226.67202941 -220.21822996 223.48253021 -220.22265625 220.29296875 C-220.22781754 219.29193619 -220.23297882 218.29090363 -220.23829651 217.25953674 C-220.23837204 216.33865768 -220.23844757 215.41777863 -220.23852539 214.46899414 C-220.240746 213.65402969 -220.24296661 212.83906525 -220.24525452 211.99940491 C-220.125 210.1328125 -220.125 210.1328125 -219.125 209.1328125 C-218.89829092 207.57528199 -218.73064908 206.00903891 -218.58984375 204.44140625 C-218.45932617 203.02504883 -218.45932617 203.02504883 -218.32617188 201.58007812 C-218.1956543 200.09024414 -218.1956543 200.09024414 -218.0625 198.5703125 C-217.92618164 197.07467773 -217.92618164 197.07467773 -217.78710938 195.54882812 C-217.56241186 193.07715548 -217.34189649 190.60517994 -217.125 188.1328125 C-216.465 188.1328125 -215.805 188.1328125 -215.125 188.1328125 C-214.795 183.8428125 -214.465 179.5528125 -214.125 175.1328125 C-213.465 175.1328125 -212.805 175.1328125 -212.125 175.1328125 C-212.05152344 174.04613281 -212.05152344 174.04613281 -211.9765625 172.9375 C-211.57293848 167.71822383 -211.11224193 163.03467592 -209.125 158.1328125 C-208.465 158.1328125 -207.805 158.1328125 -207.125 158.1328125 C-206.795 155.1628125 -206.465 152.1928125 -206.125 149.1328125 C-205.465 149.1328125 -204.805 149.1328125 -204.125 149.1328125 C-203.795 146.4928125 -203.465 143.8528125 -203.125 141.1328125 C-202.465 141.1328125 -201.805 141.1328125 -201.125 141.1328125 C-200.795 139.4828125 -200.465 137.8328125 -200.125 136.1328125 C-199.465 136.1328125 -198.805 136.1328125 -198.125 136.1328125 C-197.795 133.8228125 -197.465 131.5128125 -197.125 129.1328125 C-196.465 129.1328125 -195.805 129.1328125 -195.125 129.1328125 C-195.125 128.1428125 -195.125 127.1528125 -195.125 126.1328125 C-194.465 126.1328125 -193.805 126.1328125 -193.125 126.1328125 C-192.795 123.8228125 -192.465 121.5128125 -192.125 119.1328125 C-191.465 119.1328125 -190.805 119.1328125 -190.125 119.1328125 C-189.795 117.8128125 -189.465 116.4928125 -189.125 115.1328125 C-188.465 115.1328125 -187.805 115.1328125 -187.125 115.1328125 C-187.00125 113.9984375 -186.8775 112.8640625 -186.75 111.6953125 C-186.54375 110.5196875 -186.3375 109.3440625 -186.125 108.1328125 C-185.465 107.8028125 -184.805 107.4728125 -184.125 107.1328125 C-183.795 106.1428125 -183.465 105.1528125 -183.125 104.1328125 C-182.465 104.1328125 -181.805 104.1328125 -181.125 104.1328125 C-181.125 103.4728125 -181.125 102.8128125 -181.125 102.1328125 C-180.465 101.8028125 -179.805 101.4728125 -179.125 101.1328125 C-178.46944881 98.60548015 -178.46944881 98.60548015 -178.125 96.1328125 C-177.135 96.1328125 -176.145 96.1328125 -175.125 96.1328125 C-175.125 95.4728125 -175.125 94.8128125 -175.125 94.1328125 C-174.465 94.1328125 -173.805 94.1328125 -173.125 94.1328125 C-172.795 92.8128125 -172.465 91.4928125 -172.125 90.1328125 C-171.465 90.1328125 -170.805 90.1328125 -170.125 90.1328125 C-169.795 88.4828125 -169.465 86.8328125 -169.125 85.1328125 C-167.805 84.8028125 -166.485 84.4728125 -165.125 84.1328125 C-164.795 82.8128125 -164.465 81.4928125 -164.125 80.1328125 C-163.465 80.1328125 -162.805 80.1328125 -162.125 80.1328125 C-161.795 78.8128125 -161.465 77.4928125 -161.125 76.1328125 C-160.465 76.1328125 -159.805 76.1328125 -159.125 76.1328125 C-158.795 75.1428125 -158.465 74.1528125 -158.125 73.1328125 C-157.465 73.1328125 -156.805 73.1328125 -156.125 73.1328125 C-155.795 72.1428125 -155.465 71.1528125 -155.125 70.1328125 C-154.465 70.1328125 -153.805 70.1328125 -153.125 70.1328125 C-153.125 69.4728125 -153.125 68.8128125 -153.125 68.1328125 C-152.465 68.1328125 -151.805 68.1328125 -151.125 68.1328125 C-150.795 67.1428125 -150.465 66.1528125 -150.125 65.1328125 C-149.465 65.1328125 -148.805 65.1328125 -148.125 65.1328125 C-147.795 64.1428125 -147.465 63.1528125 -147.125 62.1328125 C-146.465 62.1328125 -145.805 62.1328125 -145.125 62.1328125 C-144.795 61.1428125 -144.465 60.1528125 -144.125 59.1328125 C-143.465 59.1328125 -142.805 59.1328125 -142.125 59.1328125 C-142.125 58.4728125 -142.125 57.8128125 -142.125 57.1328125 C-141.34125 57.0503125 -140.5575 56.9678125 -139.75 56.8828125 C-137.01841749 56.42914933 -137.01841749 56.42914933 -136.0625 54.3203125 C-135.5984375 53.2375 -135.5984375 53.2375 -135.125 52.1328125 C-133.1875 49.8828125 -133.1875 49.8828125 -131.125 48.1328125 C-130.135 48.1328125 -129.145 48.1328125 -128.125 48.1328125 C-127.795 47.1428125 -127.465 46.1528125 -127.125 45.1328125 C-125.805 45.1328125 -124.485 45.1328125 -123.125 45.1328125 C-122.795 44.1428125 -122.465 43.1528125 -122.125 42.1328125 C-121.465 42.1328125 -120.805 42.1328125 -120.125 42.1328125 C-120.125 41.4728125 -120.125 40.8128125 -120.125 40.1328125 C-118.64 39.6378125 -118.64 39.6378125 -117.125 39.1328125 C-116.795 38.4728125 -116.465 37.8128125 -116.125 37.1328125 C-115.135 37.1328125 -114.145 37.1328125 -113.125 37.1328125 C-113.125 36.4728125 -113.125 35.8128125 -113.125 35.1328125 C-111.475 34.8028125 -109.825 34.4728125 -108.125 34.1328125 C-108.125 33.4728125 -108.125 32.8128125 -108.125 32.1328125 C-106.475 31.8028125 -104.825 31.4728125 -103.125 31.1328125 C-103.125 30.4728125 -103.125 29.8128125 -103.125 29.1328125 C-101.145 28.8028125 -99.165 28.4728125 -97.125 28.1328125 C-97.125 27.4728125 -97.125 26.8128125 -97.125 26.1328125 C-95.145 25.8028125 -93.165 25.4728125 -91.125 25.1328125 C-91.125 24.4728125 -91.125 23.8128125 -91.125 23.1328125 C-90.135 23.1328125 -89.145 23.1328125 -88.125 23.1328125 C-88.125 22.4728125 -88.125 21.8128125 -88.125 21.1328125 C-86.145 20.8028125 -84.165 20.4728125 -82.125 20.1328125 C-82.125 19.4728125 -82.125 18.8128125 -82.125 18.1328125 C-78.825 17.8028125 -75.525 17.4728125 -72.125 17.1328125 C-71.795 16.1428125 -71.465 15.1528125 -71.125 14.1328125 C-69.475 14.1328125 -67.825 14.1328125 -66.125 14.1328125 C-66.125 13.4728125 -66.125 12.8128125 -66.125 12.1328125 C-63.155 11.8028125 -60.185 11.4728125 -57.125 11.1328125 C-57.125 10.4728125 -57.125 9.8128125 -57.125 9.1328125 C-55.475 9.1328125 -53.825 9.1328125 -52.125 9.1328125 C-52.125 8.4728125 -52.125 7.8128125 -52.125 7.1328125 C-47.505 6.8028125 -42.885 6.4728125 -38.125 6.1328125 C-38.125 5.4728125 -38.125 4.8128125 -38.125 4.1328125 C-33.36192563 3.18019763 -28.9583472 3.04947893 -24.125 3.1328125 C-24.125 2.4728125 -24.125 1.8128125 -24.125 1.1328125 C-16.06420033 0.34796754 -8.09696761 -0.01579229 0 0 Z " fill="#4DCB62" transform="translate(426.125,221.8671875)"/>
</svg>
